<svg width="26" height="27" viewBox="0 0 26 27" fill="none" xmlns="http://www.w3.org/2000/svg">
<path d="M22.9167 0.375H3.08333C2.33189 0.375 1.61122 0.682291 1.07986 1.22927C0.548511 1.77625 0.25 2.51812 0.25 3.29167V23.7083C0.25 24.4819 0.548511 25.2237 1.07986 25.7707C1.61122 26.3177 2.33189 26.625 3.08333 26.625H22.9167C24.475 26.625 25.75 25.3125 25.75 23.7083V3.29167C25.75 1.6875 24.475 0.375 22.9167 0.375ZM18.6667 14.9583H14.4167V19.3333C14.4167 20.1354 13.7792 20.7917 13 20.7917C12.2208 20.7917 11.5833 20.1354 11.5833 19.3333V14.9583H7.33333C6.55417 14.9583 5.91667 14.3021 5.91667 13.5C5.91667 12.6979 6.55417 12.0417 7.33333 12.0417H11.5833V7.66667C11.5833 6.86458 12.2208 6.20833 13 6.20833C13.7792 6.20833 14.4167 6.86458 14.4167 7.66667V12.0417H18.6667C19.4458 12.0417 20.0833 12.6979 20.0833 13.5C20.0833 14.3021 19.4458 14.9583 18.6667 14.9583Z" fill="#7E4B2B"/>
</svg>
