<svg width="21" height="20" viewBox="0 0 21 20" fill="none" xmlns="http://www.w3.org/2000/svg">
<path fill-rule="evenodd" clip-rule="evenodd" d="M19.234 0.920977C19.4671 0.753069 19.7455 0.699815 20.0107 0.772392C20.2759 0.844969 20.5073 1.03773 20.6564 1.31023L21.6979 3.2124C21.8337 3.46089 21.8918 3.75883 21.862 4.05362C21.8321 4.34841 21.7163 4.62111 21.5349 4.82358L21.5317 4.82861L21.457 4.91176L21.2203 5.18259C19.9105 6.70382 18.6403 8.27334 17.4118 9.88889C15.1004 12.9324 12.3555 16.9156 10.5081 20.7804C9.99256 21.8587 8.73322 22.0905 7.98625 21.1596L1.16354 12.6716C1.06576 12.5499 0.98942 12.4059 0.939044 12.2482C0.888667 12.0905 0.865286 11.9223 0.870292 11.7535C0.875297 11.5848 0.908586 11.4189 0.96818 11.2659C1.02777 11.1129 1.11246 10.9757 1.21719 10.8626L3.27926 8.63547C3.46047 8.43985 3.69283 8.32573 3.93658 8.31263C4.18032 8.29953 4.42028 8.38827 4.6154 8.56367L8.09672 11.689C13.5349 5.26825 16.6185 2.80425 19.234 0.920977Z" fill="white"/>
</svg>
