<svg width="101" height="51" viewBox="0 0 101 51" fill="none" xmlns="http://www.w3.org/2000/svg">
<path d="M11.6111 0.5C8.66426 0.5 5.83811 1.31044 3.75437 2.75302C1.67063 4.19561 0.5 6.15218 0.5 8.19231V42.8077C0.5 44.8478 1.67063 46.8044 3.75437 48.247C5.83811 49.6896 8.66426 50.5 11.6111 50.5H33.8333V0.5H11.6111Z" fill="#009A49"/>
<path d="M33.8333 0.5H67.1667V50.5H33.8333V0.5Z" fill="#EEEEEE"/>
<path d="M89.3889 0.5H67.1667V50.5H89.3889C92.3357 50.5 95.1619 49.6896 97.2456 48.247C99.3294 46.8044 100.5 44.8478 100.5 42.8077V8.19231C100.5 6.15218 99.3294 4.19561 97.2456 2.75302C95.1619 1.31044 92.3357 0.5 89.3889 0.5Z" fill="#009A49"/>
</svg>
