<svg width="21" height="22" viewBox="0 0 21 29" fill="none" xmlns="http://www.w3.org/2000/svg">
<path d="M2.02273 9.66669H18.9759L17.9623 25.8906C17.9159 26.6312 17.5891 27.3262 17.0483 27.8342C16.5075 28.3422 15.7934 28.625 15.0515 28.625H5.94856C5.20659 28.625 4.49253 28.3422 3.95174 27.8342C3.41095 27.3262 3.0841 26.6312 3.03773 25.8906L2.02273 9.66669ZM20.7084 5.29169V8.20835H0.291687V5.29169H4.66669V3.83335C4.66669 3.05981 4.97398 2.31794 5.52096 1.77096C6.06794 1.22398 6.80981 0.916687 7.58335 0.916687H13.4167C14.1902 0.916687 14.9321 1.22398 15.4791 1.77096C16.0261 2.31794 16.3334 3.05981 16.3334 3.83335V5.29169H20.7084ZM7.58335 5.29169H13.4167V3.83335H7.58335V5.29169Z" fill="#392315"/>
</svg>
