<svg width="28" height="21" viewBox="0 0 28 21" fill="none" xmlns="http://www.w3.org/2000/svg">
<path d="M14.9375 21V15H18.6875L14 9L9.3125 15H13.0625V21H8.375V20.95C8.2175 20.96 8.0675 21 7.90625 21C6.04145 21 4.25302 20.2098 2.93441 18.8033C1.61579 17.3968 0.875 15.4891 0.875 13.5C0.875 9.652 3.60313 6.516 7.10375 6.086C7.41068 4.37459 8.2671 2.83075 9.52571 1.72001C10.7843 0.609275 12.3665 0.00106803 14 0C15.6338 0.000963324 17.2162 0.609089 18.4751 1.71981C19.734 2.83052 20.5908 4.37442 20.8981 6.086C24.3988 6.516 27.1231 9.652 27.1231 13.5C27.1231 15.4891 26.3823 17.3968 25.0637 18.8033C23.7451 20.2098 21.9567 21 20.0919 21C19.9344 21 19.7825 20.96 19.6231 20.95V21H14.9375Z" fill="#7E4B2B"/>
</svg>
