<svg width="100" height="50" viewBox="0 0 100 50" fill="none" xmlns="http://www.w3.org/2000/svg">
<path d="M40.625 7.68182V11.5227H99.9453C99.8625 10.2841 99.6844 8.71818 99.0469 7.68182" fill="#7C292C"/>
<path d="M96.25 3.84091H40.625V7.68182H99.0469C98.4125 6.24886 97.4687 4.94205 96.25 3.84091Z" fill="#736161"/>
<path d="M84.375 0H40.625V3.84091H96.25C93.6422 1.46591 89.35 0 84.375 0Z" fill="#7C292C"/>
<path d="M99.9453 11.5227H40.625V15.3636H100V12.8034C100 12.575 99.9797 12.3523 99.9703 12.1284C99.9641 12.067 99.9547 11.9091 99.9453 11.5227Z" fill="#736161"/>
<path d="M40.625 19.2045H100V15.3636H40.625V19.2045Z" fill="#7C292C"/>
<path d="M40.625 23.0455H100V19.2045H40.625V23.0455Z" fill="#736161"/>
<path d="M40.625 23.0455H100V26.8864H40.625V23.0455Z" fill="#7C292C"/>
<path d="M0 26.8864V30.7273H100V26.8864H40.625H0Z" fill="#736161"/>
<path d="M0 30.7273H100V34.5682H0V30.7273Z" fill="#7C292C"/>
<path d="M0.0078125 36.9307C0.0078125 36.9307 -0.00625 37.8614 0.03125 38.4091H99.9688C100.012 37.8477 99.9922 36.9307 99.9922 36.9307L100 34.5682H0L0.0078125 36.9307Z" fill="#736161"/>
<path d="M15.625 50H84.375C89.3641 50 93.5109 48.6818 96.3438 46.0909H3.64062C6.56562 48.7386 10.7906 50 15.6172 50" fill="#7C292C"/>
<path d="M3.64844 46.0909H96.3516C97.5874 44.9489 98.5103 43.645 99.0703 42.25H0.945313C1.51578 43.6409 2.43487 44.943 3.65625 46.0909" fill="#736161"/>
<path d="M0.9375 42.25H99.0625C99.5742 41.0006 99.8784 39.7111 99.9688 38.4091H0.03125C0.185937 39.7227 0.329688 40.7148 0.9375 42.25Z" fill="#7C292C"/>
<path d="M40.625 0H15.625C5.27031 0 0 5.59659 0 12.5V26.8864H40.625V0Z" fill="#1A3C52"/>
<path d="M4.37188 6.79091L5.22187 6.31591L6.07031 6.79091L5.74062 6.02727L6.58594 5.56023H5.54219L5.21875 4.79318L4.89687 5.56023H3.85469L4.70312 6.02727L4.37188 6.79091ZM9.9875 6.79091L10.8375 6.31591L11.6859 6.79091L11.3578 6.02727L12.2016 5.56023H11.1594L10.8359 4.79318L10.5141 5.56023H9.46875L10.3172 6.02727L9.9875 6.79091ZM16.1828 6.79091L17.0312 6.31591L17.8813 6.79091L17.5516 6.02727L18.3953 5.56023H17.3594L17.0312 4.79318L16.7078 5.56023H15.6719L16.5109 6.02727L16.1828 6.79091ZM22.3328 6.79091L23.1813 6.31591L24.0312 6.79091L23.7031 6.02727L24.5469 5.56023H23.5L23.1813 4.79318L22.8594 5.56023H21.8156L22.6625 6.02727L22.3328 6.79091ZM28.5047 6.79091L29.3547 6.31591L30.2031 6.79091L29.875 6.02727L30.7203 5.56023H29.675L29.3531 4.79318L29.0312 5.56023H27.9891L28.8328 6.02727L28.5047 6.79091ZM7.36094 8.78523L8.20938 8.31136L9.05781 8.78523L8.73125 8.02273L9.575 7.55568H8.53125L8.20781 6.78977L7.89062 7.55568H6.84375L7.68906 8.02273L7.36094 8.78523ZM12.9781 8.78523L13.8266 8.31136L14.675 8.78523L14.3469 8.02273L15.1906 7.55568H14.1406L13.8266 6.78977L13.5031 7.55568H12.4609L13.3062 8.02273L12.9781 8.78523ZM19.1734 8.78523L20.0203 8.31136L20.8687 8.78523L20.5406 8.02273L21.3859 7.55568H20.3438L20.0203 6.78977L19.6969 7.55568H18.6531L19.4984 8.02273L19.1734 8.78523ZM25.3203 8.78523L26.1703 8.31136L27.0203 8.78523L26.6875 8.02273L27.5344 7.55568H26.4922L26.1687 6.78977L25.8484 7.55568H24.8047L25.65 8.02273L25.3203 8.78523ZM31.5 8.78523L32.3422 8.31136L33.1906 8.78523L32.8594 8.02273L33.7062 7.55568H32.6656L32.3406 6.78977L32.0203 7.55568H30.9766L31.8219 8.02273L31.5 8.78523ZM34.9797 6.79091L35.8281 6.31591L36.6781 6.79091L36.3484 6.02727L37.1922 5.56023H36.1562L35.8266 4.79318L35.5047 5.56023H34.4531L35.3078 6.02727L34.9797 6.79091ZM4.28906 22.75L5.13906 22.2807L5.9875 22.75L5.65937 21.9932L6.50313 21.525L5.46094 21.5273L5.13594 20.7614L4.81719 21.5273L3.77187 21.525L4.61719 21.9932L4.28906 22.75ZM9.90625 22.75L10.7547 22.2807L11.6047 22.75L11.275 21.9932L12.1187 21.525L11.0781 21.5273L10.7531 20.7614L10.4328 21.5273L9.39063 21.525L10.2344 21.9932L9.90625 22.75ZM16.1016 22.75L16.95 22.2807L17.8 22.75L17.4703 21.9932L18.3141 21.525L17.2656 21.5273L16.9484 20.7614L16.6266 21.5273L15.5844 21.525L16.4297 21.9932L16.1016 22.75ZM22.2516 22.75L23.1 22.2807L23.9484 22.75L23.625 21.9932L24.4641 21.525L23.4203 21.5273L23.0984 20.7614L22.7766 21.5273L21.7344 21.525L22.5781 21.9932L22.2516 22.75ZM28.4219 22.75L29.2719 22.2807L30.1219 22.75L29.7969 21.9932L30.6359 21.525L29.5938 21.5273L29.2703 20.7614L28.95 21.5273L27.9063 21.525L28.75 21.9932L28.4219 22.75ZM34.8969 22.75L35.7453 22.2807L36.5953 22.75L36.2656 21.9932L37.1109 21.525L36.0625 21.5273L35.7438 20.7614L35.4219 21.5273L34.375 21.525L35.225 21.9932L34.8969 22.75ZM4.37188 10.7818L5.22187 10.3068L6.07031 10.7818L5.74062 10.0182L6.58594 9.55114L5.54219 9.55341L5.21875 8.78523L4.89687 9.55341L3.85469 9.55114L4.70312 10.0182L4.37188 10.7818ZM9.9875 10.7818L10.8375 10.3068L11.6859 10.7818L11.3578 10.0182L12.2016 9.55114L11.1594 9.55341L10.8359 8.78523L10.5141 9.55341L9.46875 9.55114L10.3172 10.0182L9.9875 10.7818ZM16.1828 10.7818L17.0312 10.3068L17.8813 10.7818L17.5516 10.0182L18.3953 9.55114L17.3594 9.55341L17.0312 8.78523L16.7078 9.55341L15.6719 9.55114L16.5109 10.0182L16.1828 10.7818ZM22.3328 10.7818L23.1813 10.3068L24.0312 10.7818L23.7031 10.0182L24.5469 9.55114L23.5 9.55341L23.1813 8.78523L22.8594 9.55341L21.8156 9.55114L22.6625 10.0182L22.3328 10.7818ZM28.5047 10.7818L29.3547 10.3068L30.2031 10.7818L29.875 10.0182L30.7203 9.55114L29.675 9.55341L29.3531 8.78523L29.0312 9.55341L27.9891 9.55114L28.8328 10.0182L28.5047 10.7818ZM7.36094 12.7773L8.20938 12.3034L9.05781 12.7773L8.73125 12.0148L9.575 11.5455H8.53125L8.20781 10.7818L7.89062 11.5455H6.84375L7.68906 12.0148L7.36094 12.7773ZM12.9781 12.7773L13.8266 12.3034L14.675 12.7773L14.3469 12.0148L15.1906 11.5455H14.1406L13.8266 10.7818L13.5031 11.5455H12.4609L13.3062 12.0148L12.9781 12.7773ZM19.1734 12.7773L20.0203 12.3034L20.8687 12.7773L20.5406 12.0148L21.3859 11.5455H20.3438L20.0203 10.7818L19.6969 11.5455H18.6531L19.4984 12.0148L19.1734 12.7773ZM25.3203 12.7773L26.1703 12.3034L27.0203 12.7773L26.6875 12.0148L27.5344 11.5455H26.4922L26.1687 10.7818L25.8484 11.5455H24.8047L25.65 12.0148L25.3203 12.7773ZM31.5 12.7773L32.3422 12.3034L33.1906 12.7773L32.8594 12.0148L33.7062 11.5455H32.6656L32.3406 10.7818L32.0203 11.5455H30.9766L31.8219 12.0148L31.5 12.7773ZM34.9797 10.7818L35.8281 10.3068L36.6781 10.7818L36.3484 10.0182L37.1922 9.55114L36.1562 9.55341L35.8266 8.78523L35.5047 9.55341L34.4531 9.55114L35.3078 10.0182L34.9797 10.7818ZM4.28906 14.7727L5.13906 14.2989L5.9875 14.7727L5.65781 14.0114L6.50313 13.5432L5.45937 13.5455L5.13594 12.7773L4.81719 13.5455L3.77187 13.5432L4.61719 14.0114L4.28906 14.7727ZM9.90625 14.7727L10.7547 14.2989L11.6047 14.7727L11.275 14.0114L12.1187 13.5432L11.0781 13.5455L10.7531 12.7773L10.4328 13.5455L9.39063 13.5432L10.2328 14.0114L9.90625 14.7727ZM16.1016 14.7727L16.95 14.2989L17.7984 14.7727L17.4703 14.0114L18.3141 13.5432L17.2656 13.5455L16.9484 12.7773L16.6266 13.5455L15.5844 13.5432L16.4297 14.0114L16.1016 14.7727ZM22.2516 14.7727L23.0984 14.2989L23.9484 14.7727L23.625 14.0114L24.4641 13.5432L23.4203 13.5455L23.0984 12.7773L22.7766 13.5455L21.7344 13.5432L22.5781 14.0114L22.2516 14.7727ZM28.4219 14.7727L29.2719 14.2989L30.1203 14.7727L29.7969 14.0114L30.6359 13.5432L29.5922 13.5455L29.2703 12.7773L28.95 13.5455L27.9063 13.5432L28.75 14.0114L28.4219 14.7727ZM7.27812 16.7682L8.12656 16.2955L8.975 16.7682L8.64844 16.0114L9.49062 15.5409H8.44688L8.125 14.7727L7.80469 15.5409H6.76094L7.60625 16.0114L7.27812 16.7682ZM12.8953 16.7682L13.7437 16.2955L14.5922 16.7682L14.2641 16.0114L15.1078 15.5409H14.0625L13.7422 14.7727L13.4203 15.5409H12.3766L13.2234 16.0114L12.8953 16.7682ZM19.0922 16.7682L19.9375 16.2955L20.7875 16.7682L20.4531 16.0114L21.3031 15.5409H20.2609L19.9375 14.7727L19.6156 15.5409H18.5719L19.4172 16.0114L19.0922 16.7682ZM25.2344 16.7682L26.0875 16.2955L26.9375 16.7682L26.6094 16.0114L27.4516 15.5409H26.4094L26.0859 14.7727L25.7656 15.5409H24.7219L25.5672 16.0114L25.2344 16.7682ZM31.4062 16.7682L32.2594 16.2955L33.1094 16.7682L32.7797 16.0114L33.6266 15.5409H32.5844L32.2594 14.7727L31.9375 15.5409H30.8937L31.7391 16.0114L31.4062 16.7682ZM34.8969 14.7727L35.7453 14.2989L36.5938 14.7727L36.2656 14.0114L37.1109 13.5432L36.0625 13.5455L35.7438 12.7773L35.4219 13.5455L34.375 13.5432L35.225 14.0114L34.8969 14.7727ZM4.28906 18.7648L5.13906 18.2955L5.9875 18.7648L5.65781 18.0023L6.50313 17.5341L5.45937 17.5364L5.13594 16.7682L4.81719 17.5364L3.77187 17.5341L4.61719 18.0023L4.28906 18.7648ZM9.90625 18.7648L10.7547 18.2955L11.6047 18.7648L11.275 18.0023L12.1187 17.5341L11.0781 17.5364L10.7531 16.7682L10.4328 17.5364L9.39063 17.5341L10.2328 18.0023L9.90625 18.7648ZM16.1016 18.7648L16.95 18.2955L17.7984 18.7648L17.4703 18.0023L18.3141 17.5341L17.2656 17.5364L16.9484 16.7682L16.6266 17.5364L15.5844 17.5341L16.4297 18.0023L16.1016 18.7648ZM22.2516 18.7648L23.0984 18.2955L23.9484 18.7648L23.625 18.0023L24.4641 17.5341L23.4203 17.5364L23.0984 16.7682L22.7766 17.5364L21.7344 17.5341L22.5781 18.0023L22.2516 18.7648ZM28.4219 18.7648L29.2719 18.2955L30.1203 18.7648L29.7969 18.0023L30.6359 17.5341L29.5922 17.5364L29.2703 16.7682L28.95 17.5364L27.9063 17.5341L28.75 18.0023L28.4219 18.7648ZM7.27812 20.7614L8.12656 20.2864L8.975 20.7614L8.64844 19.9977L9.49062 19.5341H8.44688L8.125 18.7648L7.80469 19.5341H6.76094L7.60625 19.9977L7.27812 20.7614ZM12.8953 20.7614L13.7437 20.2864L14.5922 20.7614L14.2641 19.9977L15.1078 19.5341H14.0625L13.7422 18.7648L13.4203 19.5341H12.3766L13.2234 19.9977L12.8953 20.7614ZM19.0922 20.7614L19.9375 20.2864L20.7875 20.7614L20.4531 19.9977L21.3031 19.5341H20.2609L19.9375 18.7648L19.6156 19.5341H18.5719L19.4172 19.9977L19.0922 20.7614ZM25.2344 20.7614L26.0875 20.2864L26.9375 20.7614L26.6094 19.9977L27.4516 19.5341H26.4094L26.0859 18.7648L25.7656 19.5341H24.7219L25.5672 19.9977L25.2344 20.7614ZM31.4062 20.7614L32.2594 20.2864L33.1094 20.7614L32.7797 19.9977L33.6266 19.5341H32.5844L32.2594 18.7648L31.9375 19.5341H30.8937L31.7391 19.9977L31.4062 20.7614ZM34.8969 18.7648L35.7453 18.2955L36.5938 18.7648L36.2656 18.0023L37.1109 17.5341L36.0625 17.5364L35.7438 16.7682L35.4219 17.5364L34.375 17.5341L35.225 18.0023L34.8969 18.7648Z" fill="#736161"/>
</svg>
