<svg width="26" height="27" viewBox="0 0 26 27" fill="none" xmlns="http://www.w3.org/2000/svg">
<path d="M22.6667 0H2.83333C2.08189 0 1.36122 0.307291 0.829864 0.854272C0.298511 1.40125 0 2.14312 0 2.91667V23.3333C0 24.1069 0.298511 24.8487 0.829864 25.3957C1.36122 25.9427 2.08189 26.25 2.83333 26.25H22.6667C24.225 26.25 25.5 24.9375 25.5 23.3333V2.91667C25.5 1.3125 24.225 0 22.6667 0ZM18.4167 14.5833H14.1667V18.9583C14.1667 19.7604 13.5292 20.4167 12.75 20.4167C11.9708 20.4167 11.3333 19.7604 11.3333 18.9583V14.5833H7.08333C6.30417 14.5833 5.66667 13.9271 5.66667 13.125C5.66667 12.3229 6.30417 11.6667 7.08333 11.6667H11.3333V7.29167C11.3333 6.48958 11.9708 5.83333 12.75 5.83333C13.5292 5.83333 14.1667 6.48958 14.1667 7.29167V11.6667H18.4167C19.1958 11.6667 19.8333 12.3229 19.8333 13.125C19.8333 13.9271 19.1958 14.5833 18.4167 14.5833Z" fill="#392315"/>
</svg>
