<svg width="100" height="44" viewBox="0 0 100 44" fill="none" xmlns="http://www.w3.org/2000/svg">
<path d="M100 33C100 39.075 94.7297 44 84.375 44H15.625C5.27031 44 0 39.075 0 33V11C0 4.925 5.27031 0 15.625 0H84.375C94.7297 0 100 4.925 100 11V33Z" fill="#E6696E"/>
<path d="M20.2672 6.656L23.6094 11L31.1016 11.695L25.6844 15.07L26.9609 19.85L20.2672 17.595L13.5719 19.85L14.85 15.07L9.4375 11.695L16.9172 11L20.2672 6.656ZM32.0422 2.994L32.9688 4.199L35.0531 4.392L33.5484 5.331L33.9 6.656L32.0422 6.03L30.1859 6.656L30.5375 5.331L29.0344 4.392L31.1141 4.199L32.0422 2.994ZM38.0594 7.328L38.9875 8.532L41.0625 8.726L39.5641 9.667L39.9172 10.99L38.0594 10.365L36.2031 10.99L36.5547 9.667L35.0531 8.726L37.1297 8.532L38.0594 7.328ZM38.0594 14.284L38.9875 15.491L41.0625 15.684L39.5641 16.623L39.9172 17.948L38.0594 17.324L36.2031 17.948L36.5547 16.623L35.0531 15.684L37.1297 15.491L38.0594 14.284ZM32.0422 19.17L32.9688 20.375L35.0531 20.567L33.5484 21.505L33.9 22.832L32.0422 22.21L30.1859 22.832L30.5375 21.505L29.0344 20.567L31.1141 20.375L32.0422 19.17Z" fill="#FCDB71"/>
</svg>
