<svg width="42" height="36" viewBox="0 0 42 36" fill="none" xmlns="http://www.w3.org/2000/svg">
<path d="M20.6883 11.5L26.5 17.2933V17C26.5 15.5413 25.9205 14.1424 24.8891 13.1109C23.8576 12.0795 22.4587 11.5 21 11.5H20.6883ZM12.805 12.9667L15.6467 15.8083C15.555 16.1933 15.5 16.5783 15.5 17C15.5 18.4587 16.0795 19.8576 17.1109 20.8891C18.1424 21.9205 19.5413 22.5 21 22.5C21.4033 22.5 21.8067 22.445 22.1917 22.3533L25.0333 25.195C23.805 25.8 22.4483 26.1667 21 26.1667C18.5688 26.1667 16.2373 25.2009 14.5182 23.4818C12.7991 21.7627 11.8333 19.4312 11.8333 17C11.8333 15.5517 12.2 14.195 12.805 12.9667ZM2.66667 2.82833L7.67167 7.83333C4.64667 10.2167 2.26333 13.3333 0.833332 17C4.005 25.0483 11.8333 30.75 21 30.75C23.8417 30.75 26.555 30.2 29.03 29.21L29.8183 29.98L35.1717 35.3333L37.5 33.005L4.995 0.5M21 7.83333C23.4312 7.83333 25.7627 8.7991 27.4818 10.5182C29.2009 12.2373 30.1667 14.5689 30.1667 17C30.1667 18.1733 29.9283 19.31 29.5067 20.3367L34.8783 25.7083C37.6283 23.4167 39.8283 20.41 41.1667 17C37.995 8.95167 30.1667 3.25 21 3.25C18.4333 3.25 15.9767 3.70833 13.6667 4.53333L17.645 8.475C18.69 8.07167 19.8083 7.83333 21 7.83333Z" fill="#868181"/>
</svg>
