<svg width="18" height="12" viewBox="0 0 22 15" fill="none" xmlns="http://www.w3.org/2000/svg">
<path d="M11 12C12.25 12 13.3127 11.5623 14.188 10.687C15.0633 9.81167 15.5007 8.74933 15.5 7.5C15.5 6.25 15.0623 5.18733 14.187 4.312C13.3117 3.43667 12.2493 2.99933 11 3C9.75 3 8.68733 3.43767 7.812 4.313C6.93667 5.18833 6.49933 6.25067 6.5 7.5C6.5 8.75 6.93767 9.81267 7.813 10.688C8.68833 11.5633 9.75067 12.0007 11 12ZM11 10.2C10.25 10.2 9.61233 9.93733 9.087 9.412C8.56167 8.88667 8.29933 8.24933 8.3 7.5C8.3 6.75 8.56267 6.11233 9.088 5.587C9.61333 5.06167 10.2507 4.79933 11 4.8C11.75 4.8 12.3877 5.06267 12.913 5.588C13.4383 6.11333 13.7007 6.75067 13.7 7.5C13.7 8.25 13.4377 8.88767 12.913 9.413C12.3883 9.93833 11.7507 10.2007 11 10.2ZM11 15C8.56667 15 6.35 14.3207 4.35 12.962C2.35 11.6033 0.9 9.78267 0 7.5C0.9 5.21667 2.35 3.39567 4.35 2.037C6.35 0.678334 8.56667 -0.000666176 11 4.90436e-07C13.4333 4.90436e-07 15.65 0.679334 17.65 2.038C19.65 3.39667 21.1 5.21733 22 7.5C21.1 9.78333 19.65 11.6043 17.65 12.963C15.65 14.3217 13.4333 15.0007 11 15ZM11 13C12.8833 13 14.6127 12.504 16.188 11.512C17.7633 10.52 18.9673 9.18267 19.8 7.5C18.9667 5.81667 17.7623 4.479 16.187 3.487C14.6117 2.495 12.8827 1.99933 11 2C9.11667 2 7.38733 2.496 5.812 3.488C4.23667 4.48 3.03267 5.81733 2.2 7.5C3.03333 9.18333 4.23767 10.521 5.813 11.513C7.38833 12.505 9.11733 13.0007 11 13Z" fill="#868181"/>
</svg>
