<svg width="89" height="58" viewBox="0 0 89 58" fill="none" xmlns="http://www.w3.org/2000/svg">
<path d="M15.5438 18.0364L15.5439 18.0363L15.5341 18.0347C15.3525 18.0042 15.2098 17.9418 15.1173 17.8735C15.0249 17.8052 15.0081 17.752 15.0057 17.74C15.0045 17.7338 15.0045 17.7283 15.0066 17.7203C15.009 17.7115 15.0158 17.6933 15.0358 17.6676C15.0783 17.6129 15.1695 17.5396 15.3245 17.4836L15.3245 17.4837L15.3301 17.4816L22.3896 14.8367L22.9242 14.7252L42.9743 14.3506L29.5995 20.6808L15.5438 18.0364ZM85.2715 10.7418L85.275 10.7423C85.981 10.8365 86.6059 11.0678 87.0707 11.3874C87.5361 11.7074 87.794 12.0815 87.8752 12.4361C87.9541 12.7804 87.8767 13.148 87.6054 13.5029C87.3279 13.8659 86.8603 14.1944 86.237 14.4154L86.2314 14.4175C79.5816 16.8662 70.1387 20.3297 60.2511 23.9059L60.0073 23.9941L59.9388 24.2441L54.0797 45.6558L54.0794 45.6569C54.0484 45.7711 53.9377 45.9325 53.6805 46.0734C53.6801 46.0736 53.6797 46.0738 53.6794 46.074L47.5003 49.4243L47.4997 49.4247C47.3756 49.4922 47.2117 49.5431 47.0242 49.562C46.8374 49.5807 46.648 49.5654 46.4796 49.5203C46.3097 49.4747 46.1839 49.4052 46.105 49.3358C46.0272 49.2675 46.0113 49.2153 46.0083 49.1954L46.0081 49.1939L43.2392 30.65L43.1493 30.048L42.5762 30.2531C28.749 35.2019 17.0912 39.2324 13.9746 40.0172C13.8129 40.0543 13.6357 40.0645 13.4625 40.0453C13.2873 40.0259 13.1332 39.9784 13.0141 39.9158L13.011 39.9142L2.0137 34.2291C2.01306 34.2287 2.01241 34.2284 2.01177 34.2281C1.58246 34.0007 1.32011 33.7154 1.2065 33.4433C1.09863 33.185 1.1137 32.9163 1.26605 32.6507C1.42573 32.3724 1.74039 32.0957 2.20867 31.8916C2.67354 31.6889 3.23784 31.5816 3.81954 31.5943C3.81998 31.5943 3.82043 31.5943 3.82087 31.5943L15.1157 31.9165L15.2356 31.9199L15.344 31.8685L62.3904 9.58688L62.3904 9.58692L62.396 9.58421C63.4164 9.08542 64.5981 8.73166 65.8614 8.55199C67.1244 8.37237 68.4328 8.3719 69.6961 8.55063L69.6964 8.55068L85.2715 10.7418Z" fill="#A6A1A1" stroke="#A6A1A1"/>
</svg>
