<svg xmlns="http://www.w3.org/2000/svg" xmlns:xlink="http://www.w3.org/1999/xlink" viewBox="0 0 16 14.19"><defs><style>.cls-1{fill:url(#linear-gradient);}.cls-2{fill:url(#linear-gradient-2);}.cls-3{fill:url(#linear-gradient-3);}.cls-4{fill:url(#linear-gradient-4);}</style><linearGradient id="linear-gradient" x1="7.24" y1="2.79" x2="9.02" y2="2.79" gradientTransform="matrix(1, 0, 0, -1, 0, 16.09)" gradientUnits="userSpaceOnUse"><stop offset="0" stop-color="#b2643e"/><stop offset="1" stop-color="#f7be0e"/></linearGradient><linearGradient id="linear-gradient-2" x1="0" y1="9.65" x2="15.98" y2="9.65" xlink:href="#linear-gradient"/><linearGradient id="linear-gradient-3" x1="12.1" y1="2.79" x2="13.88" y2="2.79" xlink:href="#linear-gradient"/><linearGradient id="linear-gradient-4" x1="5.76" y1="11.53" x2="14.99" y2="11.53" xlink:href="#linear-gradient"/></defs><g id="Layer_2" data-name="Layer 2"><g id="Layer_1-2" data-name="Layer 1"><g id="Layer_2-2" data-name="Layer 2"><g id="Layer_1_copy" data-name="Layer 1 copy"><g id="_150x670" data-name=" 150x670"><path class="cls-1" d="M8.13,14.19A.89.89,0,1,1,9,13.3a.89.89,0,0,1-.89.89Zm0-1.21a.32.32,0,1,0,.32.32h0A.32.32,0,0,0,8.13,13Z"/><path class="cls-2" d="M15.4,10a1.66,1.66,0,0,0-.74-.27h-8A1.6,1.6,0,0,1,5.58,9a2,2,0,0,1-.26-.6h0L3.18,1.29h0a1.56,1.56,0,0,0-1.09-1L.68,0h0A.59.59,0,0,0,.2.13.49.49,0,0,0,0,.46a.55.55,0,0,0,.38.6h0l1.32.26a.54.54,0,0,1,.48.45h0L4.37,9h0a2.58,2.58,0,0,0,1.46,1.62,2.35,2.35,0,0,0,1,.21h7.8s.32.07.32.33a.68.68,0,0,1,0,.14.7.7,0,0,1-.68.5H6.38a.54.54,0,0,0-.57.5.53.53,0,0,0,.5.57.09.09,0,0,0,.07,0h.75a1.1,1.1,0,0,1,1.42-.59,1.13,1.13,0,0,1,.59.59H12a1.09,1.09,0,0,1,2,0h.82a1.39,1.39,0,0,0,.67-.42A1.86,1.86,0,0,0,16,11.17,1.33,1.33,0,0,0,15.4,10Z"/><path class="cls-3" d="M13,14.19a.89.89,0,1,1,.89-.89A.89.89,0,0,1,13,14.19ZM13,13a.32.32,0,1,0,.32.32h0A.32.32,0,0,0,13,13Z"/><path class="cls-4" d="M14.39.4h-8a.59.59,0,0,0-.59.6s0,.05,0,.08L6.89,8.22a.59.59,0,0,0,.59.49h5.58a.58.58,0,0,0,.57-.48l.58-3A.32.32,0,0,0,14,4.85h0c-.13-.06-.59-.39-.59-.39s.47-.14.59-.2l.24-.11a.34.34,0,0,0,.18-.21L15,1.1A.58.58,0,0,0,14.5.41ZM12.48,6.21v0a.81.81,0,0,1-.81.77H8.51a.24.24,0,0,1-.26-.23v-1a.23.23,0,0,1,.24-.25h3.18a.74.74,0,0,1,.81.67h0Zm0-3.55a.82.82,0,0,1-.81.82H8.51a.23.23,0,0,1-.26-.23V2.1a.26.26,0,0,1,.26-.26h3.16a.82.82,0,0,1,.81.82Z"/></g></g></g></g></g></svg>