<svg width="24" height="30" viewBox="0 0 24 30" fill="none" xmlns="http://www.w3.org/2000/svg">
<path d="M16.0001 24.3333C16.0001 25.3942 15.5787 26.4116 14.8286 27.1618C14.0784 27.9119 13.061 28.3333 12.0001 28.3333C10.9393 28.3333 9.92187 27.9119 9.17172 27.1618C8.42157 26.4116 8.00015 25.3942 8.00015 24.3333M12.9615 5.67066L11.0068 5.66666C6.54815 5.65599 2.67748 9.27866 2.64681 13.6667V18.72C2.64681 19.7733 2.51348 20.8013 1.93881 21.6773L1.55615 22.2613C0.97348 23.1467 1.60015 24.3333 2.64681 24.3333H21.3535C22.4001 24.3333 23.0255 23.1467 22.4441 22.2613L22.0615 21.6773C21.4881 20.8013 21.3535 19.772 21.3535 18.7187V13.668C21.3001 9.27866 17.4201 5.68132 12.9615 5.67066ZM12.0001 1.66666C12.7074 1.66666 13.3857 1.94761 13.8858 2.4477C14.3859 2.9478 14.6668 3.62608 14.6668 4.33332V5.66666H9.33348V4.33332C9.33348 3.62608 9.61443 2.9478 10.1145 2.4477C10.6146 1.94761 11.2929 1.66666 12.0001 1.66666Z" stroke="#BBBBBB" stroke-width="2.66667" stroke-linecap="round" stroke-linejoin="round"/>
</svg>
