<svg width="24" height="30" viewBox="0 0 24 30" fill="none" xmlns="http://www.w3.org/2000/svg">
<path fill-rule="evenodd" clip-rule="evenodd" d="M17.696 12.696C17.696 14.1105 17.1341 15.467 16.1339 16.4672C15.1337 17.4674 13.7772 18.0293 12.3627 18.0293C10.9482 18.0293 9.59163 17.4674 8.59144 16.4672C7.59124 15.467 7.02934 14.1105 7.02934 12.696C7.02934 11.2815 7.59124 9.92495 8.59144 8.92475C9.59163 7.92456 10.9482 7.36266 12.3627 7.36266C13.7772 7.36266 15.1337 7.92456 16.1339 8.92475C17.1341 9.92495 17.696 11.2815 17.696 12.696ZM15.0293 12.696C15.0293 13.4032 14.7484 14.0815 14.2483 14.5816C13.7482 15.0817 13.0699 15.3627 12.3627 15.3627C11.6554 15.3627 10.9772 15.0817 10.4771 14.5816C9.97696 14.0815 9.69601 13.4032 9.69601 12.696C9.69601 11.9887 9.97696 11.3105 10.4771 10.8104C10.9772 10.3103 11.6554 10.0293 12.3627 10.0293C13.0699 10.0293 13.7482 10.3103 14.2483 10.8104C14.7484 11.3105 15.0293 11.9887 15.0293 12.696Z" fill="white"/>
<path fill-rule="evenodd" clip-rule="evenodd" d="M3.72534 21.024C2.00646 19.3874 0.811479 17.2779 0.291519 14.9621C-0.22844 12.6464 -0.0500283 10.2285 0.804194 8.01418C1.65842 5.79985 3.15008 3.88856 5.09056 2.52199C7.03104 1.15543 9.33317 0.394977 11.7058 0.336798C14.0785 0.278619 16.4152 0.925327 18.4203 2.19514C20.4254 3.46496 22.009 5.30084 22.9707 7.47065C23.9324 9.64045 24.2291 12.0467 23.8233 14.3851C23.4174 16.7236 22.3273 18.8891 20.6907 20.608L12.416 29.2987L3.72534 21.024ZM18.76 18.7693L12.324 25.5293L5.56401 19.0933C4.22716 17.8204 3.29779 16.1797 2.8934 14.3786C2.48902 12.5775 2.62779 10.697 3.29216 8.97478C3.95653 7.25256 5.11667 5.76602 6.62587 4.70314C8.13508 3.64025 9.92557 3.04876 11.7709 3.00345C13.6163 2.95814 15.4337 3.46105 16.9932 4.44859C18.5527 5.43613 19.7844 6.86394 20.5325 8.55147C21.2806 10.239 21.5115 12.1105 21.196 13.9292C20.8805 15.748 20.0328 17.4324 18.76 18.7693Z" fill="white"/>
</svg>
