<svg width="59" height="59" viewBox="0 0 59 59" fill="none" xmlns="http://www.w3.org/2000/svg">
<path d="M59 29.5C59 45.7924 45.7924 59 29.5 59C13.2076 59 0 45.7924 0 29.5C0 13.2076 13.2076 0 29.5 0C45.7924 0 59 13.2076 59 29.5Z" fill="#3D3D3D"/>
<path d="M48.8 48.2201C48.6683 48.4573 48.4789 48.6542 48.2508 48.7911C48.0226 48.928 47.7639 49.0001 47.5005 49H11.4985C11.2354 48.9997 10.9769 48.9274 10.749 48.7904C10.5212 48.6534 10.3321 48.4565 10.2006 48.2194C10.0691 47.9823 9.99993 47.7135 10 47.4398C10.0001 47.1661 10.0694 46.8973 10.201 46.6603C13.0568 41.5267 17.4576 37.8456 22.5935 36.1006C20.0531 34.528 18.0793 32.1318 16.9753 29.28C15.8713 26.4281 15.6982 23.2783 16.4825 20.3142C17.2667 17.3502 18.9651 14.7357 21.3166 12.8724C23.6682 11.0091 26.543 10 29.4995 10C32.4561 10 35.3309 11.0091 37.6824 12.8724C40.034 14.7357 41.7323 17.3502 42.5166 20.3142C43.3009 23.2783 43.1277 26.4281 42.0237 29.28C40.9198 32.1318 38.946 34.528 36.4055 36.1006C41.5414 37.8456 45.9423 41.5267 48.7981 46.6603C48.93 46.8973 48.9997 47.1662 49 47.44C49.0003 47.7138 48.9313 47.9828 48.8 48.2201Z" fill="white" fill-opacity="0.49"/>
</svg>
