<svg width="68" height="38" viewBox="0 0 68 38" fill="none" xmlns="http://www.w3.org/2000/svg">
<path d="M2.84629 4.62197e-06C4.18304 -0.000183234 5.48911 0.241134 6.5954 0.692714C7.70168 1.14429 8.55723 1.78534 9.05128 2.53285L12.1429 7.3077H14.5714V7.01831C14.5708 6.86477 14.6204 6.71265 14.7175 6.57064C14.8145 6.42864 14.9571 6.29953 15.137 6.19068C15.317 6.08184 15.5308 5.99539 15.7663 5.93628C16.0018 5.87716 16.2543 5.84654 16.5094 5.84616H21.8571V4.10254C21.5827 3.95465 21.3893 3.7601 21.3026 3.54463C21.2159 3.32916 21.24 3.10293 21.3716 2.89587C21.5032 2.68881 21.7362 2.51067 22.0398 2.38504C22.3433 2.25941 22.703 2.1922 23.0714 2.19231C23.4398 2.1922 23.7996 2.25941 24.1031 2.38504C24.4066 2.51067 24.6396 2.68881 24.7712 2.89587C24.9029 3.10293 24.9269 3.32916 24.8402 3.54463C24.7535 3.7601 24.5602 3.95465 24.2857 4.10254V5.84616H29.6091C29.8643 5.84654 30.1168 5.87716 30.3523 5.93628C30.5878 5.99539 30.8016 6.08184 30.9815 6.19068C31.1615 6.29953 31.3041 6.42864 31.4011 6.57064C31.4982 6.71265 31.5478 6.86477 31.5471 7.01831V7.3077H35.6247C36.1276 7.31631 36.6064 7.43899 36.9653 7.65116L38.8304 8.76923H1.93059e-06V0.92662C-0.000318975 0.804757 0.0393693 0.684058 0.116786 0.571453C0.194202 0.458849 0.307817 0.356558 0.451114 0.270456C0.594411 0.184354 0.764564 0.116138 0.951796 0.0697255C1.13903 0.0233131 1.33966 -0.000380562 1.54215 4.62197e-06H2.84629ZM43.7143 11.6923L41.2736 10.2308H1.93059e-06V13.1538H48.4816L47.1701 12.3792C46.4173 11.9408 45.3924 11.6923 44.3457 11.6923H43.7143ZM1.93059e-06 14.6154H50.9539L53.4286 16.0769H61.7173C64.0536 16.0769 65.8726 17.3163 65.5301 18.6872L64.1046 24.6956C63.7039 27.4988 61.6469 30.0229 58.548 32.0121C58.4961 32.0282 58.4426 32.0424 58.3877 32.0545C58.1595 32.0956 57.9212 32.1124 57.6834 32.1042C57.2463 32.1042 57.0763 32.0735 56.9961 32.0559C56.865 32.0267 56.729 31.9843 56.2724 31.8221L56.2433 31.8104C54.9901 31.3602 53.091 30.6923 49.8149 30.6923C46.5363 30.6923 44.6371 31.3602 43.3864 31.8089L43.3597 31.8177C42.9031 31.9814 42.7647 32.0252 42.6311 32.0545C42.4022 32.0957 42.163 32.1125 41.9244 32.1042C41.6867 32.1124 41.4483 32.0956 41.2201 32.0545C41.0817 32.0252 40.9433 31.9814 40.4891 31.8177L40.46 31.8089C39.2093 31.3617 37.3101 30.6923 34.034 30.6923C30.7554 30.6923 28.8587 31.3602 27.608 31.8089L27.5789 31.8177C27.3603 31.8966 27.0931 32.0018 26.8503 32.0545C26.6221 32.0956 26.3838 32.1124 26.146 32.1042C25.9074 32.1126 25.6682 32.0958 25.4393 32.0545C25.3033 32.0252 25.1649 31.9814 24.7107 31.8177L24.6816 31.8089C23.4309 31.3617 21.5317 30.6923 18.2531 30.6923C14.9746 30.6923 13.0706 31.3573 11.8126 31.806L11.7834 31.8177C11.3244 31.9799 11.186 32.0252 11.0476 32.0545C10.8194 32.0955 10.5811 32.1123 10.3433 32.1042C10.1013 32.1125 9.85885 32.0952 9.62686 32.053C9.36655 31.9872 9.11696 31.9069 8.88129 31.8133L8.857 31.8045C7.60143 31.3588 5.69986 30.6923 2.42857 30.6923H1.93059e-06V27.7692H52.3357C52.9429 27.7692 53.4286 27.4477 53.4286 27.0385C53.4286 26.6292 52.9453 26.3077 52.3357 26.3077H1.93059e-06V14.6154ZM57.0714 20.4615C57.7514 20.4615 58.2857 20.14 58.2857 19.7308C58.2857 19.3362 57.7514 19 57.0714 19C56.3914 19 55.8571 19.3215 55.8571 19.7308C55.8571 20.14 56.3914 20.4615 57.0714 20.4615ZM47.7457 19H46.9443C46.4829 19 46.1186 19.2192 46.1186 19.4969V21.4262C46.1186 21.7038 46.4829 21.9231 46.9443 21.9231H47.7457C48.2071 21.9231 48.5714 21.7038 48.5714 21.4262V19.4969C48.5714 19.2192 48.2071 19 47.7457 19ZM43.7143 19.4969C43.7143 19.2192 43.35 19 42.8886 19H42.0871C41.6257 19 41.2614 19.2192 41.2614 19.4969V21.4262C41.2614 21.7038 41.6257 21.9231 42.0871 21.9231H42.8886C43.35 21.9231 43.7143 21.7038 43.7143 21.4262V19.4969ZM38.0071 19H37.2057C36.7443 19 36.38 19.2192 36.38 19.4969V21.4262C36.38 21.7038 36.7443 21.9231 37.2057 21.9231H38.0071C38.4686 21.9231 38.8329 21.7038 38.8329 21.4262V19.4969C38.8329 19.2192 38.4686 19 38.0071 19ZM34 19.4969C34 19.2192 33.6357 19 33.1743 19H32.3729C31.9114 19 31.5471 19.2192 31.5471 19.4969V21.4262C31.5471 21.7038 31.9114 21.9231 32.3729 21.9231H33.1743C33.6357 21.9231 34 21.7038 34 21.4262V19.4969ZM21.0314 19H20.23C19.7686 19 19.4043 19.2192 19.4043 19.4969V21.4262C19.4043 21.7038 19.7686 21.9231 20.23 21.9231H21.0314C21.4929 21.9231 21.8571 21.7038 21.8571 21.4262V19.4969C21.8571 19.2192 21.4929 19 21.0314 19ZM17 19.4969C17 19.2192 16.6357 19 16.1743 19H15.3729C14.9114 19 14.5471 19.2192 14.5471 19.4969V21.4262C14.5471 21.7038 14.9114 21.9231 15.3729 21.9231H16.1743C16.6357 21.9231 17 21.7038 17 21.4262V19.4969ZM11.3171 19H10.5157C10.0543 19 9.69 19.2192 9.69 19.4969V21.4262C9.69 21.7038 10.0543 21.9231 10.5157 21.9231H11.3171C11.7786 21.9231 12.1429 21.7038 12.1429 21.4262V19.4969C12.1429 19.2192 11.7786 19 11.3171 19ZM6.46 19H5.65857C5.19715 19 4.83286 19.2192 4.83286 19.4969V21.4262C4.83286 21.7038 5.19715 21.9231 5.65857 21.9231H6.46C6.92143 21.9231 7.28572 21.7038 7.28572 21.4262V19.4969C7.28572 19.2192 6.92143 19 6.46 19ZM56.0393 33.4005C56.5626 33.521 57.121 33.5767 57.681 33.5642C58.9876 33.5642 59.5194 33.3742 60.3573 33.0746L60.3864 33.0644C61.5036 32.6654 62.9461 32.1538 65.5714 32.1538H68V38H1.93059e-06V32.1538H2.42857C5.05143 32.1538 6.49886 32.6639 7.62086 33.0629L7.64515 33.0717C8.49515 33.3728 9.03186 33.5642 10.3409 33.5642C11.645 33.5642 12.1793 33.3742 13.0196 33.0746L13.0511 33.0629C14.1756 32.6625 15.6206 32.1538 18.2531 32.1538C20.8784 32.1538 22.321 32.6654 23.4406 33.0644L23.4673 33.0746C24.3051 33.3742 24.837 33.5642 26.1436 33.5642C27.4501 33.5642 27.982 33.3742 28.8199 33.0746L28.849 33.0644C29.9661 32.6639 31.4087 32.1538 34.034 32.1538C36.6569 32.1538 38.1019 32.6654 39.219 33.0644L39.2481 33.0746C40.086 33.3742 40.6179 33.5642 41.9244 33.5642C43.2286 33.5642 43.7629 33.3742 44.6007 33.0746L44.6274 33.0644C45.7446 32.6639 47.1896 32.1538 49.8149 32.1538C52.4377 32.1538 53.8827 32.6654 54.9999 33.0658L55.029 33.0761C55.3957 33.2076 55.7017 33.3172 56.0393 33.4005Z" fill="#A6A1A1"/>
</svg>
