<svg width="101" height="51" viewBox="0 0 100 50" fill="none" xmlns="http://www.w3.org/2000/svg">
<path d="M59.3714 50H84.3698C87.4586 50 90.0834 49.4932 92.263 48.6102L59.3714 34.3398V50ZM99.4625 41.1477C99.8188 39.992 100 38.7682 100 37.4989V31.817H77.9545L99.4563 41.1477M0.547025 8.81705C0.176742 10.0261 -0.00667516 11.2614 0.000185548 12.5V18.1818H22.13L0.547025 8.81705ZM40.6226 0H15.6242C12.5572 0 9.94955 0.5 7.77937 1.37045L40.6226 15.6205V0ZM7.87937 48.6659C10.0292 49.5114 12.6025 50 15.6242 50H40.6226V34.4591L7.87937 48.6659ZM0.000185548 31.8182V37.5C0.000185548 38.808 0.190798 40.0682 0.567337 41.2534L22.3144 31.8182H0.000185548ZM92.3614 1.42614C90.1647 0.519318 87.5039 0 84.3698 0H59.3714V15.7398L92.3614 1.42614ZM99.9937 18.1818V12.5C99.9937 11.2568 99.8172 10.058 99.475 8.92386L78.1389 18.1818H99.9937Z" fill="#737497"/>
<path d="M78.1389 18.1818L99.475 8.92386C98.497 5.66932 96.1159 2.975 92.3614 1.42614L59.3714 15.7398V0H56.2466V20.4545H99.9937V18.1818H78.1389ZM0.000189335 29.5455L0.000185548 31.8182H22.3144L0.567337 41.2534C1.60008 44.4977 4.05305 47.1614 7.87937 48.6659L40.6226 34.4591V50H43.7474V29.5455H0.000189335ZM99.9937 29.5455H56.2466V50H59.3714V34.3398L92.263 48.6114C96.0456 47.0795 98.4563 44.4 99.4563 41.15L77.9545 31.8182H99.9937V29.5455ZM40.6226 0V15.6205L7.77937 1.37045C3.98274 2.89318 1.55634 5.56818 0.545467 8.81705L22.13 18.1818H0.000185548L0.000189335 20.4545H43.7474V0H40.6226Z" fill="#A6A1A1"/>
<path d="M56.2466 20.4545V0H43.7474V20.4545H0.000189335V29.5455H43.7474V50H56.2466V29.5455H99.9937V20.4545H56.2466Z" fill="#C26971"/>
<path d="M34.2761 18.1818L2.95 4.58068C2.27661 5.30795 1.73602 6.10795 1.28917 6.96023L27.1422 18.1818H34.2714M98.572 43.2841L72.3033 31.8182H65.0288L96.7658 45.7034C97.5018 44.9554 98.1084 44.1444 98.572 43.2886M94.8675 2.71704L59.3229 18.1818L66.5397 18.1852L97.2111 4.82954C96.5268 3.92386 95.805 3.33977 94.8675 2.71704ZM2.83282 45.3125C3.53564 46.091 4.38143 46.796 5.34672 47.408L40.721 31.8182H33.5918L2.83282 45.3125Z" fill="#C26971"/>
</svg>
