<svg width="101" height="51" viewBox="0 0 101 51" fill="none" xmlns="http://www.w3.org/2000/svg">
<path d="M59.8714 50.5H84.8698C87.9586 50.5 90.5834 49.9932 92.763 49.1102L59.8714 34.8398V50.5ZM99.9625 41.6477C100.319 40.492 100.5 39.2682 100.5 37.9989V32.317H78.4545L99.9563 41.6477M1.04703 9.31705C0.676742 10.5261 0.493325 11.7614 0.500186 13V18.6818H22.63L1.04703 9.31705ZM41.1226 0.5H16.1242C13.0572 0.5 10.4495 1 8.27937 1.87045L41.1226 16.1205V0.5ZM8.37937 49.1659C10.5292 50.0114 13.1025 50.5 16.1242 50.5H41.1226V34.9591L8.37937 49.1659ZM0.500186 32.3182V38C0.500186 39.308 0.690798 40.5682 1.06734 41.7534L22.8144 32.3182H0.500186ZM92.8614 1.92614C90.6647 1.01932 88.0039 0.5 84.8698 0.5H59.8714V16.2398L92.8614 1.92614ZM100.494 18.6818V13C100.494 11.7568 100.317 10.558 99.975 9.42386L78.6389 18.6818H100.494Z" fill="#2E3192"/>
<path d="M78.6389 18.6818L99.975 9.42386C98.997 6.16932 96.6159 3.475 92.8614 1.92614L59.8714 16.2398V0.5H56.7466V20.9545H100.494V18.6818H78.6389ZM0.500189 30.0455L0.500186 32.3182H22.8144L1.06734 41.7534C2.10008 44.9977 4.55305 47.6614 8.37937 49.1659L41.1226 34.9591V50.5H44.2474V30.0455H0.500189ZM100.494 30.0455H56.7466V50.5H59.8714V34.8398L92.763 49.1114C96.5456 47.5795 98.9564 44.9 99.9563 41.65L78.4545 32.3182H100.494V30.0455ZM41.1226 0.5V16.1205L8.27937 1.87045C4.48274 3.39318 2.05634 6.06818 1.04547 9.31705L22.63 18.6818H0.500186L0.500189 20.9545H44.2474V0.5H41.1226Z" fill="#E6E7E8"/>
<path d="M56.7466 20.9545V0.5H44.2474V20.9545H0.500189V30.0455H44.2474V50.5H56.7466V30.0455H100.494V20.9545H56.7466Z" fill="#BE1E2D"/>
<path d="M34.7761 18.6818L3.45 5.08068C2.77661 5.80795 2.23602 6.60795 1.78917 7.46023L27.6422 18.6818H34.7714M99.072 43.7841L72.8033 32.3182H65.5288L97.2658 46.2034C98.0018 45.4554 98.6084 44.6444 99.072 43.7886M95.3675 3.21704L59.8229 18.6818L67.0396 18.6852L97.7111 5.32955C97.0268 4.42386 96.305 3.83977 95.3675 3.21704ZM3.33282 45.8125C4.03564 46.591 4.88143 47.296 5.84672 47.908L41.221 32.3182H34.0918L3.33282 45.8125Z" fill="#BE1E2D"/>
</svg>
