<svg width="101" height="51" viewBox="0 0 101 51" fill="none" xmlns="http://www.w3.org/2000/svg">
<path d="M41.125 8.18182V12.0227H100.445C100.362 10.7841 100.184 9.21818 99.5469 8.18182" fill="#EC1C24"/>
<path d="M96.75 4.34091H41.125V8.18182H99.5469C98.9125 6.74886 97.9687 5.44205 96.75 4.34091Z" fill="#E6E7E8"/>
<path d="M84.875 0.5H41.125V4.34091H96.75C94.1422 1.96591 89.85 0.5 84.875 0.5Z" fill="#EC1C24"/>
<path d="M100.445 12.0227H41.125V15.8636H100.5V13.3034C100.5 13.075 100.48 12.8523 100.47 12.6284C100.464 12.567 100.455 12.4091 100.445 12.0227Z" fill="#E6E7E8"/>
<path d="M41.125 19.7045H100.5V15.8636H41.125V19.7045Z" fill="#EC1C24"/>
<path d="M41.125 23.5455H100.5V19.7045H41.125V23.5455Z" fill="#E6E7E8"/>
<path d="M41.125 23.5455H100.5V27.3864H41.125V23.5455Z" fill="#EC1C24"/>
<path d="M0.5 27.3864V31.2273H100.5V27.3864H41.125H0.5Z" fill="#E6E7E8"/>
<path d="M0.5 31.2273H100.5V35.0682H0.5V31.2273Z" fill="#EC1C24"/>
<path d="M0.507812 37.4307C0.507812 37.4307 0.49375 38.3614 0.53125 38.9091H100.469C100.512 38.3477 100.492 37.4307 100.492 37.4307L100.5 35.0682H0.5L0.507812 37.4307Z" fill="#E6E7E8"/>
<path d="M16.125 50.5H84.875C89.8641 50.5 94.0109 49.1818 96.8438 46.5909H4.14062C7.06562 49.2386 11.2906 50.5 16.1172 50.5" fill="#EC1C24"/>
<path d="M4.14844 46.5909H96.8516C98.0874 45.4489 99.0103 44.145 99.5703 42.75H1.44531C2.01578 44.1409 2.93487 45.443 4.15625 46.5909" fill="#E6E7E8"/>
<path d="M1.4375 42.75H99.5625C100.074 41.5006 100.378 40.2111 100.469 38.9091H0.53125C0.685937 40.2227 0.829688 41.2148 1.4375 42.75Z" fill="#EC1C24"/>
<path d="M41.125 0.5H16.125C5.77031 0.5 0.5 6.09659 0.5 13V27.3864H41.125V0.5Z" fill="#176496"/>
<path d="M4.87188 7.29091L5.72187 6.81591L6.57031 7.29091L6.24062 6.52727L7.08594 6.06023H6.04219L5.71875 5.29318L5.39687 6.06023H4.35469L5.20312 6.52727L4.87188 7.29091ZM10.4875 7.29091L11.3375 6.81591L12.1859 7.29091L11.8578 6.52727L12.7016 6.06023H11.6594L11.3359 5.29318L11.0141 6.06023H9.96875L10.8172 6.52727L10.4875 7.29091ZM16.6828 7.29091L17.5312 6.81591L18.3813 7.29091L18.0516 6.52727L18.8953 6.06023H17.8594L17.5312 5.29318L17.2078 6.06023H16.1719L17.0109 6.52727L16.6828 7.29091ZM22.8328 7.29091L23.6813 6.81591L24.5312 7.29091L24.2031 6.52727L25.0469 6.06023H24L23.6813 5.29318L23.3594 6.06023H22.3156L23.1625 6.52727L22.8328 7.29091ZM29.0047 7.29091L29.8547 6.81591L30.7031 7.29091L30.375 6.52727L31.2203 6.06023H30.175L29.8531 5.29318L29.5312 6.06023H28.4891L29.3328 6.52727L29.0047 7.29091ZM7.86094 9.28523L8.70938 8.81136L9.55781 9.28523L9.23125 8.52273L10.075 8.05568H9.03125L8.70781 7.28977L8.39062 8.05568H7.34375L8.18906 8.52273L7.86094 9.28523ZM13.4781 9.28523L14.3266 8.81136L15.175 9.28523L14.8469 8.52273L15.6906 8.05568H14.6406L14.3266 7.28977L14.0031 8.05568H12.9609L13.8062 8.52273L13.4781 9.28523ZM19.6734 9.28523L20.5203 8.81136L21.3687 9.28523L21.0406 8.52273L21.8859 8.05568H20.8438L20.5203 7.28977L20.1969 8.05568H19.1531L19.9984 8.52273L19.6734 9.28523ZM25.8203 9.28523L26.6703 8.81136L27.5203 9.28523L27.1875 8.52273L28.0344 8.05568H26.9922L26.6687 7.28977L26.3484 8.05568H25.3047L26.15 8.52273L25.8203 9.28523ZM32 9.28523L32.8422 8.81136L33.6906 9.28523L33.3594 8.52273L34.2062 8.05568H33.1656L32.8406 7.28977L32.5203 8.05568H31.4766L32.3219 8.52273L32 9.28523ZM35.4797 7.29091L36.3281 6.81591L37.1781 7.29091L36.8484 6.52727L37.6922 6.06023H36.6562L36.3266 5.29318L36.0047 6.06023H34.9531L35.8078 6.52727L35.4797 7.29091ZM4.78906 23.25L5.63906 22.7807L6.4875 23.25L6.15937 22.4932L7.00313 22.025L5.96094 22.0273L5.63594 21.2614L5.31719 22.0273L4.27187 22.025L5.11719 22.4932L4.78906 23.25ZM10.4062 23.25L11.2547 22.7807L12.1047 23.25L11.775 22.4932L12.6187 22.025L11.5781 22.0273L11.2531 21.2614L10.9328 22.0273L9.89063 22.025L10.7344 22.4932L10.4062 23.25ZM16.6016 23.25L17.45 22.7807L18.3 23.25L17.9703 22.4932L18.8141 22.025L17.7656 22.0273L17.4484 21.2614L17.1266 22.0273L16.0844 22.025L16.9297 22.4932L16.6016 23.25ZM22.7516 23.25L23.6 22.7807L24.4484 23.25L24.125 22.4932L24.9641 22.025L23.9203 22.0273L23.5984 21.2614L23.2766 22.0273L22.2344 22.025L23.0781 22.4932L22.7516 23.25ZM28.9219 23.25L29.7719 22.7807L30.6219 23.25L30.2969 22.4932L31.1359 22.025L30.0938 22.0273L29.7703 21.2614L29.45 22.0273L28.4063 22.025L29.25 22.4932L28.9219 23.25ZM35.3969 23.25L36.2453 22.7807L37.0953 23.25L36.7656 22.4932L37.6109 22.025L36.5625 22.0273L36.2438 21.2614L35.9219 22.0273L34.875 22.025L35.725 22.4932L35.3969 23.25ZM4.87188 11.2818L5.72187 10.8068L6.57031 11.2818L6.24062 10.5182L7.08594 10.0511L6.04219 10.0534L5.71875 9.28523L5.39687 10.0534L4.35469 10.0511L5.20312 10.5182L4.87188 11.2818ZM10.4875 11.2818L11.3375 10.8068L12.1859 11.2818L11.8578 10.5182L12.7016 10.0511L11.6594 10.0534L11.3359 9.28523L11.0141 10.0534L9.96875 10.0511L10.8172 10.5182L10.4875 11.2818ZM16.6828 11.2818L17.5312 10.8068L18.3813 11.2818L18.0516 10.5182L18.8953 10.0511L17.8594 10.0534L17.5312 9.28523L17.2078 10.0534L16.1719 10.0511L17.0109 10.5182L16.6828 11.2818ZM22.8328 11.2818L23.6813 10.8068L24.5312 11.2818L24.2031 10.5182L25.0469 10.0511L24 10.0534L23.6813 9.28523L23.3594 10.0534L22.3156 10.0511L23.1625 10.5182L22.8328 11.2818ZM29.0047 11.2818L29.8547 10.8068L30.7031 11.2818L30.375 10.5182L31.2203 10.0511L30.175 10.0534L29.8531 9.28523L29.5312 10.0534L28.4891 10.0511L29.3328 10.5182L29.0047 11.2818ZM7.86094 13.2773L8.70938 12.8034L9.55781 13.2773L9.23125 12.5148L10.075 12.0455H9.03125L8.70781 11.2818L8.39062 12.0455H7.34375L8.18906 12.5148L7.86094 13.2773ZM13.4781 13.2773L14.3266 12.8034L15.175 13.2773L14.8469 12.5148L15.6906 12.0455H14.6406L14.3266 11.2818L14.0031 12.0455H12.9609L13.8062 12.5148L13.4781 13.2773ZM19.6734 13.2773L20.5203 12.8034L21.3687 13.2773L21.0406 12.5148L21.8859 12.0455H20.8438L20.5203 11.2818L20.1969 12.0455H19.1531L19.9984 12.5148L19.6734 13.2773ZM25.8203 13.2773L26.6703 12.8034L27.5203 13.2773L27.1875 12.5148L28.0344 12.0455H26.9922L26.6687 11.2818L26.3484 12.0455H25.3047L26.15 12.5148L25.8203 13.2773ZM32 13.2773L32.8422 12.8034L33.6906 13.2773L33.3594 12.5148L34.2062 12.0455H33.1656L32.8406 11.2818L32.5203 12.0455H31.4766L32.3219 12.5148L32 13.2773ZM35.4797 11.2818L36.3281 10.8068L37.1781 11.2818L36.8484 10.5182L37.6922 10.0511L36.6562 10.0534L36.3266 9.28523L36.0047 10.0534L34.9531 10.0511L35.8078 10.5182L35.4797 11.2818ZM4.78906 15.2727L5.63906 14.7989L6.4875 15.2727L6.15781 14.5114L7.00313 14.0432L5.95937 14.0455L5.63594 13.2773L5.31719 14.0455L4.27187 14.0432L5.11719 14.5114L4.78906 15.2727ZM10.4062 15.2727L11.2547 14.7989L12.1047 15.2727L11.775 14.5114L12.6187 14.0432L11.5781 14.0455L11.2531 13.2773L10.9328 14.0455L9.89063 14.0432L10.7328 14.5114L10.4062 15.2727ZM16.6016 15.2727L17.45 14.7989L18.2984 15.2727L17.9703 14.5114L18.8141 14.0432L17.7656 14.0455L17.4484 13.2773L17.1266 14.0455L16.0844 14.0432L16.9297 14.5114L16.6016 15.2727ZM22.7516 15.2727L23.5984 14.7989L24.4484 15.2727L24.125 14.5114L24.9641 14.0432L23.9203 14.0455L23.5984 13.2773L23.2766 14.0455L22.2344 14.0432L23.0781 14.5114L22.7516 15.2727ZM28.9219 15.2727L29.7719 14.7989L30.6203 15.2727L30.2969 14.5114L31.1359 14.0432L30.0922 14.0455L29.7703 13.2773L29.45 14.0455L28.4063 14.0432L29.25 14.5114L28.9219 15.2727ZM7.77812 17.2682L8.62656 16.7955L9.475 17.2682L9.14844 16.5114L9.99062 16.0409H8.94688L8.625 15.2727L8.30469 16.0409H7.26094L8.10625 16.5114L7.77812 17.2682ZM13.3953 17.2682L14.2437 16.7955L15.0922 17.2682L14.7641 16.5114L15.6078 16.0409H14.5625L14.2422 15.2727L13.9203 16.0409H12.8766L13.7234 16.5114L13.3953 17.2682ZM19.5922 17.2682L20.4375 16.7955L21.2875 17.2682L20.9531 16.5114L21.8031 16.0409H20.7609L20.4375 15.2727L20.1156 16.0409H19.0719L19.9172 16.5114L19.5922 17.2682ZM25.7344 17.2682L26.5875 16.7955L27.4375 17.2682L27.1094 16.5114L27.9516 16.0409H26.9094L26.5859 15.2727L26.2656 16.0409H25.2219L26.0672 16.5114L25.7344 17.2682ZM31.9062 17.2682L32.7594 16.7955L33.6094 17.2682L33.2797 16.5114L34.1266 16.0409H33.0844L32.7594 15.2727L32.4375 16.0409H31.3937L32.2391 16.5114L31.9062 17.2682ZM35.3969 15.2727L36.2453 14.7989L37.0938 15.2727L36.7656 14.5114L37.6109 14.0432L36.5625 14.0455L36.2438 13.2773L35.9219 14.0455L34.875 14.0432L35.725 14.5114L35.3969 15.2727ZM4.78906 19.2648L5.63906 18.7955L6.4875 19.2648L6.15781 18.5023L7.00313 18.0341L5.95937 18.0364L5.63594 17.2682L5.31719 18.0364L4.27187 18.0341L5.11719 18.5023L4.78906 19.2648ZM10.4062 19.2648L11.2547 18.7955L12.1047 19.2648L11.775 18.5023L12.6187 18.0341L11.5781 18.0364L11.2531 17.2682L10.9328 18.0364L9.89063 18.0341L10.7328 18.5023L10.4062 19.2648ZM16.6016 19.2648L17.45 18.7955L18.2984 19.2648L17.9703 18.5023L18.8141 18.0341L17.7656 18.0364L17.4484 17.2682L17.1266 18.0364L16.0844 18.0341L16.9297 18.5023L16.6016 19.2648ZM22.7516 19.2648L23.5984 18.7955L24.4484 19.2648L24.125 18.5023L24.9641 18.0341L23.9203 18.0364L23.5984 17.2682L23.2766 18.0364L22.2344 18.0341L23.0781 18.5023L22.7516 19.2648ZM28.9219 19.2648L29.7719 18.7955L30.6203 19.2648L30.2969 18.5023L31.1359 18.0341L30.0922 18.0364L29.7703 17.2682L29.45 18.0364L28.4063 18.0341L29.25 18.5023L28.9219 19.2648ZM7.77812 21.2614L8.62656 20.7864L9.475 21.2614L9.14844 20.4977L9.99062 20.0341H8.94688L8.625 19.2648L8.30469 20.0341H7.26094L8.10625 20.4977L7.77812 21.2614ZM13.3953 21.2614L14.2437 20.7864L15.0922 21.2614L14.7641 20.4977L15.6078 20.0341H14.5625L14.2422 19.2648L13.9203 20.0341H12.8766L13.7234 20.4977L13.3953 21.2614ZM19.5922 21.2614L20.4375 20.7864L21.2875 21.2614L20.9531 20.4977L21.8031 20.0341H20.7609L20.4375 19.2648L20.1156 20.0341H19.0719L19.9172 20.4977L19.5922 21.2614ZM25.7344 21.2614L26.5875 20.7864L27.4375 21.2614L27.1094 20.4977L27.9516 20.0341H26.9094L26.5859 19.2648L26.2656 20.0341H25.2219L26.0672 20.4977L25.7344 21.2614ZM31.9062 21.2614L32.7594 20.7864L33.6094 21.2614L33.2797 20.4977L34.1266 20.0341H33.0844L32.7594 19.2648L32.4375 20.0341H31.3937L32.2391 20.4977L31.9062 21.2614ZM35.3969 19.2648L36.2453 18.7955L37.0938 19.2648L36.7656 18.5023L37.6109 18.0341L36.5625 18.0364L36.2438 17.2682L35.9219 18.0364L34.875 18.0341L35.725 18.5023L35.3969 19.2648Z" fill="white"/>
</svg>
